<svg xmlns="http://www.w3.org/2000/svg" viewBox="0 0 32 32" width="32" height="32">
<defs>
  <linearGradient id="sg" x1="0" y1="0" x2="0" y2="1">
    <stop offset="0%" stop-color="#fef0dc"/>
    <stop offset="55%" stop-color="#f8c898"/>
    <stop offset="100%" stop-color="#be8048"/>
  </linearGradient>
  <linearGradient id="hg" x1="0" y1="0" x2="0" y2="1">
    <stop offset="0%" stop-color="#5028b8"/>
    <stop offset="100%" stop-color="#0c031a"/>
  </linearGradient>
  <linearGradient id="jg" x1="0" y1="0" x2="1" y2="1">
    <stop offset="0%" stop-color="#5898ff"/>
    <stop offset="45%" stop-color="#1e52c8"/>
    <stop offset="100%" stop-color="#08183c"/>
  </linearGradient>
  <linearGradient id="ag" x1="1" y1="0" x2="0" y2="1">
    <stop offset="0%" stop-color="#3a68c0"/>
    <stop offset="100%" stop-color="#081438"/>
  </linearGradient>
  <linearGradient id="ng" x1="0" y1="0" x2="0" y2="1">
    <stop offset="0%" stop-color="#3a5a9a"/>
    <stop offset="100%" stop-color="#14204a"/>
  </linearGradient>
  <linearGradient id="kg" x1="0" y1="0" x2="1" y2="0">
    <stop offset="0%" stop-color="#8890b8"/>
    <stop offset="45%" stop-color="#eeeefc"/>
    <stop offset="100%" stop-color="#a8a8c8"/>
  </linearGradient>
  <linearGradient id="cg" x1="0" y1="0" x2="0" y2="1">
    <stop offset="0%" stop-color="#9030d8"/>
    <stop offset="100%" stop-color="#481090"/>
  </linearGradient>
</defs>
<g transform="scale(2)">

<!-- hair side locks behind face -->
<rect x="3.4" y="2" width="1.5" height="5.4" rx="0.75" fill="#0c031a"/>
<rect x="11.1" y="2" width="1.5" height="5.4" rx="0.75" fill="#0c031a"/>

<!-- face oval -->
<ellipse cx="8" cy="4.5" rx="3.1" ry="2.7" fill="url(#sg)" stroke="#09031a" stroke-width="0.5"/>
<ellipse cx="7.7" cy="3.2" rx="1.4" ry="0.6" fill="#ffffff" opacity="0.28"/>

<!-- hair crown -->
<ellipse cx="8" cy="2" rx="4.3" ry="2.3" fill="url(#hg)" stroke="#09031a" stroke-width="0.5"/>
<ellipse cx="6.6" cy="1.2" rx="1.7" ry="0.65" fill="#7045d0" opacity="0.72"/>
<ellipse cx="9.7" cy="1.05" rx="1" ry="0.42" fill="#5838b8" opacity="0.6"/>

<!-- eyebrows -->
<path d="M5.5,3.6 Q6.25,3.1 7,3.45" stroke="#24103a" stroke-width="0.62" fill="none" stroke-linecap="round"/>
<path d="M9,3.45 Q9.75,3.1 10.5,3.6" stroke="#24103a" stroke-width="0.62" fill="none" stroke-linecap="round"/>

<!-- left eye (large, vivid) -->
<ellipse cx="6.4" cy="4.38" rx="1.1" ry="1.02" fill="#e8d8f8" stroke="#09031a" stroke-width="0.3"/>
<ellipse cx="6.42" cy="4.46" rx="0.76" ry="0.84" fill="#180820"/>
<ellipse cx="6.38" cy="4.22" rx="0.42" ry="0.28" fill="#7040d8" opacity="0.82"/>
<path d="M5.38,3.88 Q6.4,3.44 7.42,3.88" fill="none" stroke="#09031a" stroke-width="0.42"/>
<path d="M5.52,5.04 Q6.4,5.3 7.28,5.04" fill="none" stroke="#09031a" stroke-width="0.2" opacity="0.5"/>
<circle cx="6.74" cy="4.1" r="0.24" fill="#fff"/>
<circle cx="6.28" cy="4.68" r="0.12" fill="#fff" opacity="0.7"/>

<!-- right eye -->
<ellipse cx="9.6" cy="4.38" rx="1.1" ry="1.02" fill="#e8d8f8" stroke="#09031a" stroke-width="0.3"/>
<ellipse cx="9.58" cy="4.46" rx="0.76" ry="0.84" fill="#180820"/>
<ellipse cx="9.54" cy="4.22" rx="0.42" ry="0.28" fill="#7040d8" opacity="0.82"/>
<path d="M8.58,3.88 Q9.6,3.44 10.62,3.88" fill="none" stroke="#09031a" stroke-width="0.42"/>
<path d="M8.72,5.04 Q9.6,5.3 10.48,5.04" fill="none" stroke="#09031a" stroke-width="0.2" opacity="0.5"/>
<circle cx="9.92" cy="4.1" r="0.24" fill="#fff"/>
<circle cx="9.48" cy="4.68" r="0.12" fill="#fff" opacity="0.7"/>

<!-- nose -->
<path d="M7.45,5.5 Q8,6 8.55,5.5" fill="#c08050" fill-opacity="0.45" stroke="none"/>

<!-- mouth (open, mid-stride) -->
<path d="M6.9,6.3 Q8,6.85 9.1,6.3" fill="none" stroke="#c06858" stroke-width="0.52" stroke-linecap="round"/>

<!-- POINTED HYLIAN EARS -->
<polygon points="4.58,4.8 3.1,3.55 3.82,5.78" fill="#f8c898" stroke="#09031a" stroke-width="0.42"/>
<line x1="4.28" y1="4.42" x2="3.55" y2="4.05" stroke="#c08050" stroke-width="0.25" opacity="0.55"/>
<polygon points="11.42,4.8 12.9,3.55 12.18,5.78" fill="#f8c898" stroke="#09031a" stroke-width="0.42"/>
<line x1="11.72" y1="4.42" x2="12.45" y2="4.05" stroke="#c08050" stroke-width="0.25" opacity="0.55"/>

<!-- neck -->
<rect x="6.9" y="7.2" width="2.2" height="1.1" rx="0.42" fill="#f0c090" stroke="#09031a" stroke-width="0.3"/>

<!-- collar (purple with gold trim) -->
<rect x="4.3" y="7.8" width="7.4" height="1.55" rx="0.85" fill="url(#cg)" stroke="#09031a" stroke-width="0.45"/>
<path d="M4.6,7.93 Q8,7.5 11.4,7.93" fill="none" stroke="#f0c840" stroke-width="0.3" opacity="0.85"/>
<circle cx="8" cy="8.2" r="0.36" fill="#f8d848" stroke="#09031a" stroke-width="0.18"/>
<circle cx="8" cy="8.16" r="0.16" fill="#fff" opacity="0.85"/>
<line x1="8" y1="7.8" x2="8" y2="9.35" stroke="#9e36d8" stroke-width="0.4"/>

<!-- left arm (swings back - slightly raised) -->
<rect x="1.6" y="8.6" width="2.15" height="3.8" rx="0.95" fill="url(#ag)" stroke="#09031a" stroke-width="0.4"/>
<rect x="1.9" y="8.9" width="0.65" height="2.8" rx="0.32" fill="#70a8ff" opacity="0.4"/>

<!-- right arm (swings forward - slightly lower) -->
<rect x="12.25" y="9.3" width="2.15" height="4.2" rx="0.95" fill="url(#ag)" stroke="#09031a" stroke-width="0.4"/>
<rect x="13.6" y="9.6" width="0.5" height="3.2" rx="0.25" fill="#050e28" opacity="0.48"/>

<!-- torso -->
<path d="M4,9 Q8,8.3 12,9 L12,13.2 Q8,13.55 4,13.2 Z" fill="url(#jg)" stroke="#09031a" stroke-width="0.5"/>
<path d="M4.3,9.2 L5.9,9 L5.9,13 L4.3,13.2 Z" fill="#70a8ff" opacity="0.35"/>
<line x1="8" y1="9" x2="8" y2="13.2" stroke="#0a2060" stroke-width="0.32" opacity="0.5"/>
<line x1="4.2" y1="12" x2="11.8" y2="12" stroke="#09031a" stroke-width="0.45" opacity="0.6"/>
<!-- gold belt buckle -->
<rect x="7.38" y="11.8" width="1.24" height="0.7" rx="0.22" fill="#f0b820" stroke="#09031a" stroke-width="0.22"/>
<rect x="7.6" y="11.96" width="0.8" height="0.36" rx="0.1" fill="#ffe060" opacity="0.9"/>

<!-- magic sigil -->
<circle cx="8" cy="10.6" r="1.52" fill="none" stroke="#c040ff" stroke-width="0.42"/>
<line x1="8" y1="9.08" x2="8" y2="12.12" stroke="#c040ff" stroke-width="0.36"/>
<line x1="6.48" y1="10.6" x2="9.52" y2="10.6" stroke="#c040ff" stroke-width="0.36"/>
<circle cx="8" cy="10.6" r="0.5" fill="#f090ff"/>

<!-- left hand (arm swings back, higher) -->
<ellipse cx="2.68" cy="12.6" rx="1.08" ry="0.85" fill="#f0c090" stroke="#09031a" stroke-width="0.28"/>
<!-- right hand (arm swings forward, lower) -->
<ellipse cx="13.32" cy="13.72" rx="1.08" ry="0.85" fill="#f0c090" stroke="#09031a" stroke-width="0.28"/>

<!-- LEFT leg forward (lower, heel down) -->
<rect x="3.7" y="13.3" width="3.5" height="2.05" rx="0.6" fill="url(#ng)" stroke="#09031a" stroke-width="0.4"/>
<ellipse cx="5.45" cy="13.85" rx="1.2" ry="0.45" fill="#4870b8" opacity="0.65"/>

<!-- RIGHT leg back (slightly raised) -->
<rect x="8.8" y="12.7" width="3.3" height="1.9" rx="0.6" fill="url(#ng)" stroke="#09031a" stroke-width="0.4"/>
<ellipse cx="10.45" cy="13.2" rx="1.1" ry="0.42" fill="#4870b8" opacity="0.55"/>

<line x1="8" y1="13" x2="8" y2="15" stroke="#101830" stroke-width="0.48"/>

<!-- left shoe (forward, lower) -->
<rect x="2.8" y="15.2" width="4.6" height="0.95" rx="0.52" fill="url(#kg)" stroke="#09031a" stroke-width="0.38"/>
<line x1="3.2" y1="15.72" x2="7.0" y2="15.72" stroke="#7070a0" stroke-width="0.25" opacity="0.7"/>

<!-- right shoe (back, higher) -->
<rect x="8.6" y="14.5" width="4.3" height="0.9" rx="0.52" fill="url(#kg)" stroke="#09031a" stroke-width="0.38"/>
<line x1="9.0" y1="14.98" x2="12.5" y2="14.98" stroke="#7070a0" stroke-width="0.25" opacity="0.7"/>
</g>
</svg>
