<svg width="1200" height="1200" viewBox="0 0 1200 1200" fill="none" xmlns="http://www.w3.org/2000/svg">
  <defs>
    <radialGradient id="bg" cx="50%" cy="50%" r="75%">
      <stop offset="0%" stop-color="#17233f"/>
      <stop offset="55%" stop-color="#0b1327"/>
      <stop offset="100%" stop-color="#060912"/>
    </radialGradient>

    <linearGradient id="cornerGlow" x1="0" y1="1200" x2="1200" y2="0">
      <stop offset="0%" stop-color="#5f3bff" stop-opacity="0.35"/>
      <stop offset="45%" stop-color="#1c55ff" stop-opacity="0.08"/>
      <stop offset="100%" stop-color="#ffffff" stop-opacity="0.05"/>
    </linearGradient>

    <linearGradient id="letter" x1="0" y1="430" x2="0" y2="720">
      <stop offset="0%" stop-color="#ffffff"/>
      <stop offset="46%" stop-color="#eef5ff"/>
      <stop offset="100%" stop-color="#9fb8ff"/>
    </linearGradient>

    <linearGradient id="orbit" x1="245" y1="610" x2="960" y2="685">
      <stop offset="0%" stop-color="#6d5cff" stop-opacity="0.25"/>
      <stop offset="35%" stop-color="#dce8ff" stop-opacity="0.95"/>
      <stop offset="70%" stop-color="#8098ff" stop-opacity="0.75"/>
      <stop offset="100%" stop-color="#ffffff" stop-opacity="0.95"/>
    </linearGradient>

    <filter id="softGlow" x="-30%" y="-30%" width="160%" height="160%">
      <feGaussianBlur stdDeviation="9" result="blur"/>
      <feMerge>
        <feMergeNode in="blur"/>
        <feMergeNode in="SourceGraphic"/>
      </feMerge>
    </filter>

    <filter id="bigGlow" x="-50%" y="-50%" width="200%" height="200%">
      <feGaussianBlur stdDeviation="18" result="blur"/>
      <feMerge>
        <feMergeNode in="blur"/>
        <feMergeNode in="SourceGraphic"/>
      </feMerge>
    </filter>

    <filter id="shadow" x="-20%" y="-20%" width="140%" height="140%">
      <feDropShadow dx="0" dy="18" stdDeviation="24" flood-color="#000000" flood-opacity="0.45"/>
    </filter>
  </defs>

  <!-- App icon background -->
  <rect x="75" y="75" width="1050" height="1050" fill="url(#bg)" filter="url(#shadow)"/>
  <rect x="75" y="75" width="1050" height="1050" fill="url(#cornerGlow)"/>
  <rect x="75" y="75" width="1050" height="1050" stroke="#d9e5ff" stroke-opacity="0.24" stroke-width="2"/>

  <!-- Main dashed orbital ring -->
  <circle cx="600" cy="600" r="415" stroke="#9eb4ff" stroke-opacity="0.16" stroke-width="3" stroke-dasharray="18 25"/>

  <!-- Stars and dots -->
  <g filter="url(#softGlow)">
    <path d="M945 245 L957 287 L999 299 L957 311 L945 353 L933 311 L891 299 L933 287 Z" fill="#ffffff"/>
    <path d="M225 835 L232 861 L258 868 L232 875 L225 901 L218 875 L192 868 L218 861 Z" fill="#ffffff"/>
    <path d="M980 610 L986 628 L1004 634 L986 640 L980 658 L974 640 L956 634 L974 628 Z" fill="#ffffff"/>
    <circle cx="260" cy="260" r="5.5" fill="#e7efff"/>
    <circle cx="385" cy="405" r="4" fill="#e7efff"/>
    <circle cx="935" cy="940" r="5" fill="#e7efff"/>
  </g>

  <!-- Wave separator (behind text) -->
  <g filter="url(#bigGlow)">
    <path d="M200 620 C350 560 480 650 600 680 C750 720 900 680 1000 620" stroke="url(#orbit)" stroke-width="4" stroke-linecap="round" fill="none"/>
  </g>

  <!-- Typography -->
  <g text-anchor="middle" font-family="Montserrat, Avenir Next, Arial, sans-serif" filter="url(#softGlow)">
    <text x="600" y="490" font-size="65" letter-spacing="54" fill="#edf4ff" opacity="0.95">THE</text>
    <text x="600" y="700" font-size="192" font-weight="800" letter-spacing="12" fill="url(#letter)" stroke="#ffffff" stroke-opacity="0.35" stroke-width="1.5">LIFE</text>
    <text x="600" y="820" font-size="72" letter-spacing="48" fill="#edf4ff" opacity="0.95">GAME</text>
  </g>

  <!-- Tiny orbit spark -->
  <circle cx="1002" cy="620" r="5" fill="#ffffff" filter="url(#softGlow)"/>
</svg>
